<svg width="39" height="39" viewBox="0 0 39 39" fill="none" xmlns="http://www.w3.org/2000/svg">
<path fill-rule="evenodd" clip-rule="evenodd" d="M19.5 37.375C9.62791 37.375 1.625 29.3721 1.625 19.5C1.625 9.62791 9.62791 1.625 19.5 1.625C29.3721 1.625 37.375 9.62791 37.375 19.5C37.375 29.3721 29.3721 37.375 19.5 37.375ZM19.5 34.125C27.5772 34.125 34.125 27.5772 34.125 19.5C34.125 11.4228 27.5772 4.875 19.5 4.875C11.4228 4.875 4.875 11.4228 4.875 19.5C4.875 27.5772 11.4228 34.125 19.5 34.125ZM24.0347 24.0347L28.5694 10.4306L14.9653 14.9653L10.4306 28.5694L24.0347 24.0347ZM21.4653 21.4653L15.5694 23.4306L17.5347 17.5347L23.4306 15.5694L21.4653 21.4653Z" fill="black"/>
</svg>
